<svg xmlns="http://www.w3.org/2000/svg" xmlns:xlink="http://www.w3.org/1999/xlink" id="eCYKJZojQnU1" viewBox="0 0 45 52" width="45" height="52"><style><![CDATA[#eCYKJZojQnU2 {animation: eCYKJZojQnU2_f_o 5000ms linear infinite normal forwards}@keyframes eCYKJZojQnU2_f_o { 0% {fill-opacity: 1} 10% {fill-opacity: 1} 20% {fill-opacity: 0} 30% {fill-opacity: 0} 40% {fill-opacity: 1} 100% {fill-opacity: 1}} #eCYKJZojQnU3 {animation: eCYKJZojQnU3_f_o 5000ms linear infinite normal forwards}@keyframes eCYKJZojQnU3_f_o { 0% {fill-opacity: 1} 70% {fill-opacity: 1} 80% {fill-opacity: 0} 90% {fill-opacity: 0} 100% {fill-opacity: 1}} #eCYKJZojQnU4 {animation: eCYKJZojQnU4_f_o 5000ms linear infinite normal forwards}@keyframes eCYKJZojQnU4_f_o { 0% {fill-opacity: 1} 50% {fill-opacity: 1} 60% {fill-opacity: 0} 70% {fill-opacity: 0} 80% {fill-opacity: 1} 100% {fill-opacity: 1}}]]></style><defs><linearGradient id="eCYKJZojQnU2-fill" x1="11.6251" y1="55.8953" x2="58.4986" y2="40.2987" spreadMethod="pad" gradientUnits="userSpaceOnUse"><stop id="eCYKJZojQnU2-fill-0" offset="0%" stop-color="rgb(53,224,209)"></stop><stop id="eCYKJZojQnU2-fill-1" offset="100%" stop-color="rgb(238,131,239)"></stop></linearGradient><linearGradient id="eCYKJZojQnU3-fill" x1="11.6251" y1="55.8953" x2="58.4986" y2="40.2987" spreadMethod="pad" gradientUnits="userSpaceOnUse"><stop id="eCYKJZojQnU3-fill-0" offset="0%" stop-color="rgb(53,224,209)"></stop><stop id="eCYKJZojQnU3-fill-1" offset="100%" stop-color="rgb(238,131,239)"></stop></linearGradient><linearGradient id="eCYKJZojQnU4-fill" x1="11.6251" y1="55.8953" x2="58.4986" y2="40.2987" spreadMethod="pad" gradientUnits="userSpaceOnUse"><stop id="eCYKJZojQnU4-fill-0" offset="0%" stop-color="rgb(53,224,209)"></stop><stop id="eCYKJZojQnU4-fill-1" offset="100%" stop-color="rgb(238,131,239)"></stop></linearGradient></defs><path id="eCYKJZojQnU2" d="M13.6605,46.0437L14.2212,46.3065C15.6456,46.9776,16.8151,48.0907,17.5556,49.4802L18.105,50.5161C18.2123,50.7183,18.3726,50.8876,18.5688,51.0056C18.765,51.1237,18.9896,51.1861,19.2186,51.1861C19.4476,51.1861,19.6722,51.1237,19.8684,51.0056C20.0646,50.8876,20.2249,50.7183,20.3322,50.5161L20.8814,49.4802C21.6221,48.0906,22.7918,46.9774,24.2164,46.3065L24.777,46.0437C25.0012,45.9386,25.1895,45.7698,25.3184,45.5583C25.4473,45.3468,25.511,45.1021,25.5016,44.8547C25.4922,44.6072,25.4102,44.368,25.2657,44.1669C25.1212,43.9658,24.9206,43.8117,24.6891,43.7239C22.9684,43.073,21.5601,41.7915,20.7503,40.1396L20.3489,39.323C20.245,39.112,20.0842,38.9343,19.8846,38.8099C19.685,38.6855,19.4546,38.6195,19.2194,38.6192C18.9839,38.6192,18.7531,38.6852,18.5532,38.8096C18.3533,38.9341,18.1923,39.112,18.0883,39.3233L17.6866,40.1401C16.8769,41.7917,15.4688,43.073,13.7484,43.7239C13.517,43.8118,13.3165,43.9659,13.1721,44.167C13.0277,44.3682,12.9457,44.6074,12.9364,44.8548C12.9271,45.1022,12.9909,45.3469,13.1198,45.5583C13.2486,45.7697,13.4363,45.9386,13.6605,46.0437ZM19.2186,42.4967C19.8685,43.4395,20.6801,44.2606,21.6154,44.9213C20.6805,45.5908,19.8696,46.4182,19.2192,47.3665C18.5688,46.4183,17.7579,45.5908,16.823,44.9213C17.758,44.2605,18.5688,43.4394,19.2186,42.4967Z" clip-rule="evenodd" fill="url(#eCYKJZojQnU2-fill)" fill-rule="evenodd" stroke="none" stroke-width="1"></path><path id="eCYKJZojQnU3" d="M1.72904,8.82188L2.3231,9.1003C3.83208,9.81132,5.07111,10.9906,5.85574,12.4627L6.43778,13.5602C6.55141,13.7745,6.72128,13.9538,6.92913,14.0789C7.13699,14.2039,7.37498,14.27,7.61756,14.27C7.86013,14.27,8.09813,14.2039,8.30598,14.0789C8.51384,13.9538,8.6837,13.7745,8.79733,13.5602L9.37921,12.4627C10.1639,10.9905,11.4032,9.81112,12.9125,9.1003L13.5064,8.82188C13.744,8.71054,13.9435,8.5317,14.08,8.30766C14.2165,8.08363,14.2841,7.82434,14.2741,7.56217C14.2642,7.30001,14.1772,7.04657,14.0241,6.83352C13.871,6.62046,13.6586,6.45722,13.4133,6.36419C11.5903,5.67462,10.0983,4.31686,9.24033,2.56681L8.81502,1.70168C8.70499,1.47813,8.5346,1.28983,8.32314,1.15806C8.11167,1.02629,7.86755,0.956323,7.61839,0.956055C7.36891,0.956042,7.12442,1.02592,6.91262,1.15776C6.70083,1.28961,6.5302,1.47815,6.42009,1.70201L5.99445,2.56731C5.13663,4.31708,3.64484,5.67465,1.82218,6.36419C1.57695,6.45732,1.36459,6.62062,1.21159,6.83369C1.05859,7.04677,0.971746,7.30019,0.961882,7.56232C0.952019,7.82445,1.01958,8.08368,1.15613,8.30765C1.29268,8.53162,1.4915,8.71058,1.72904,8.82188ZM7.61756,5.06406C8.30613,6.0629,9.16599,6.9328,10.1569,7.63276C9.16641,8.34204,8.30731,9.21871,7.61822,10.2233C6.92909,9.21874,6.07,8.34208,5.07957,7.63276C6.07015,6.93265,6.92909,6.06276,7.61756,5.06406Z" clip-rule="evenodd" fill="url(#eCYKJZojQnU3-fill)" fill-rule="evenodd" stroke="none" stroke-width="1"></path><path id="eCYKJZojQnU4" d="M29.3899,17.9245L30.084,18.2498C31.8471,19.0806,33.2948,20.4585,34.2115,22.1785L34.8916,23.4608C35.0244,23.7112,35.2228,23.9207,35.4657,24.0668C35.7086,24.2129,35.9866,24.2901,36.2701,24.2901C36.5535,24.2901,36.8316,24.2129,37.0744,24.0668C37.3173,23.9207,37.5157,23.7112,37.6485,23.4608L38.3284,22.1785C39.2452,20.4583,40.6932,19.0804,42.4567,18.2498L43.1506,17.9245C43.4282,17.7944,43.6613,17.5855,43.8208,17.3237C43.9803,17.062,44.0592,16.759,44.0476,16.4527C44.036,16.1464,43.9344,15.8502,43.7555,15.6013C43.5766,15.3524,43.3284,15.1617,43.0418,15.0529C40.9118,14.2473,39.1685,12.6608,38.1661,10.6161L37.6692,9.60526C37.5406,9.34407,37.3415,9.12405,37.0945,8.9701C36.8474,8.81614,36.5622,8.73439,36.271,8.73408C35.9795,8.73406,35.6939,8.8157,35.4464,8.96975C35.199,9.1238,34.9996,9.34409,34.8709,9.60565L34.3736,10.6167C33.3713,12.6611,31.6283,14.2473,29.4987,15.0529C29.2122,15.1618,28.9641,15.3526,28.7853,15.6015C28.6066,15.8505,28.5051,16.1466,28.4936,16.4528C28.482,16.7591,28.561,17.062,28.7205,17.3237C28.8801,17.5854,29.1131,17.7943,29.3907,17.9243L29.3899,17.9245ZM36.2708,13.5339C37.0754,14.7009,38.0792,15.7173,39.237,16.5352C38.0797,17.3639,37.076,18.3882,36.2708,19.562C35.4657,18.3882,34.4619,17.3639,33.3047,16.5352C34.4621,15.7171,35.4664,14.7008,36.2708,13.5339Z" clip-rule="evenodd" fill="url(#eCYKJZojQnU4-fill)" fill-rule="evenodd" stroke="none" stroke-width="1"></path></svg>