<svg xmlns="http://www.w3.org/2000/svg" xmlns:xlink="http://www.w3.org/1999/xlink" height="512" viewBox="0 0 512 512" width="512"><linearGradient id="linear-gradient" gradientUnits="userSpaceOnUse" x1="73.758" x2="401.072" y1="441.132" y2="113.818"><stop offset="0" stop-color="#35e0d1"></stop><stop offset="1" stop-color="#ee83ef"></stop></linearGradient><path d="m459.934 223.994h-27.056l-13.789-27.577a8 8 0 0 0 -7.155-4.423h-152.021v-48h32.021v24a8 8 0 0 0 8 8h80a8 8 0 0 0 8-8v-64a8 8 0 0 0 -8-8h-80a8 8 0 0 0 -8 8v24h-32.021v-56a8 8 0 0 0 -8-8h-64a8 8 0 0 0 -5.657 2.343l-17.232 17.231a40.048 40.048 0 0 0 -42.894 3.211l-12.549-11.167a8 8 0 0 0 -11.3.659l-10.631 11.953a8 8 0 0 0 11.95 10.635l5.318-5.976 5.982 5.317-5.318 5.977a8 8 0 0 0 .658 11.294l47.812 42.544a8 8 0 0 0 11.295-.658l5.318-5.977 5.976 5.318-5.318 5.977a8 8 0 1 0 11.953 10.636l10.636-11.953a8 8 0 0 0 -.659-11.3l-12.553-11.165a40.1 40.1 0 0 0 -3.343-45.028l13.872-13.871h52.687v144h-31.982v-8a24.027 24.027 0 0 0 -24-24h-8a8 8 0 0 0 0 16h8a8.009 8.009 0 0 1 8 8v8h-8a8 8 0 0 0 -8 8v40h-15.491l-67.48-67.481a24 24 0 1 0 -33.941 33.942l76.891 76.891v12.648a24.039 24.039 0 0 0 19.023 23.478l31.4 56.522h-82.4a24.027 24.027 0 0 0 -24 24v16a8 8 0 0 0 8 8h304a8 8 0 0 0 8-8v-16a24.027 24.027 0 0 0 -24-24h-72v-16a24.027 24.027 0 0 0 -24-24h-56c-.089 0-.175.011-.262.013l-9.609-16.013h80.69l29.823 29.824a24 24 0 0 0 33.954-33.929l-72.915-73.528a8 8 0 0 0 -5.681-2.367h-8v-40a8 8 0 0 0 -8-8h-8.021v-16h147.075l8 16h-27.056a8 8 0 0 0 -8 8v40h-16a8 8 0 0 0 0 16h16v16a23.984 23.984 0 0 0 40 17.869 23.984 23.984 0 0 0 40-17.869v-16a8 8 0 0 0 8-8v-48a8 8 0 0 0 -8-8zm-152-112h64v48h-64zm-149.224 28.751-35.859-31.908 5.318-5.977a23.992 23.992 0 0 1 32.73-2.933c.118.1.239.194.361.287.268.218.533.44.793.671a24.028 24.028 0 0 1 1.975 33.884zm229.224 291.249v8h-288v-8a8.009 8.009 0 0 1 8-8h272a8.009 8.009 0 0 1 8 8zm-104-48a8.009 8.009 0 0 1 8 8v16h-56v-24zm-64 2.216v21.784h-11.293l-31.111-56h21.87zm-56.021-50.216a8.009 8.009 0 0 1 -8-8v-8h110.84l16 16zm187.267 23.173.024.023a8 8 0 0 1 -11.314 11.31l-32.09-32.089-.141-.141-31.933-31.933a8 8 0 0 0 -5.657-2.343h-118.881l-76.853-76.853a8 8 0 0 1 11.314-11.314l69.824 69.824a8 8 0 0 0 5.656 2.343h119.471zm-91.246-87.173h-64v-32h64zm136-32h56v32h-24v-16a8 8 0 1 0 -16 0v16h-16zm8 72a8.009 8.009 0 0 1 -8-8v-16h16v16a8.009 8.009 0 0 1 -8 8zm40-8a8 8 0 0 1 -16 0v-16h16zm-216-192h-16v-16h16zm-16 16h16v32h-16z" fill="url(#linear-gradient)"></path></svg>