<svg xmlns="http://www.w3.org/2000/svg" xmlns:xlink="http://www.w3.org/1999/xlink" height="512" viewBox="0 0 512 512" width="512"><linearGradient id="linear-gradient" gradientUnits="userSpaceOnUse" x1="104.532" x2="407.661" y1="398.419" y2="95.29"><stop offset="0" stop-color="#35e0d1"></stop><stop offset="1" stop-color="#ee83ef"></stop></linearGradient><path d="m484.916 182.051-2.156-6.674a31.932 31.932 0 0 0 -30.333-22.161h-.12a32.535 32.535 0 0 0 -21.528 8.115c-1.613 1.42-3.425 3.005-5.334 4.667a25.356 25.356 0 0 1 -34.125-.905l-.1-.1a40.993 40.993 0 0 0 -28.6-11.675h-.1a32.015 32.015 0 0 0 -30.868 24l-.117.448-.774-2.4a31.931 31.931 0 0 0 -30.332-22.161h-.12a32.549 32.549 0 0 0 -21.531 8.116c-1.611 1.42-3.424 3-5.331 4.666a25.355 25.355 0 0 1 -34.125-.905l-.1-.1a40.993 40.993 0 0 0 -28.6-11.675h-.1a32 32 0 0 0 -30.687 23.371l-.42-1.3a31.93 31.93 0 0 0 -30.332-22.162h-.12a32.546 32.546 0 0 0 -21.53 8.116c-1.612 1.42-3.424 3-5.331 4.666a25.361 25.361 0 0 1 -34.144-.924l-.079-.077a41 41 0 0 0 -28.6-11.676h-.1a32.012 32.012 0 0 0 -30.867 24l-1.683 6.407a166.283 166.283 0 0 0 -1.513 77.829l2.79 12.6a252.282 252.282 0 0 0 14.4 44.739l11.241 26.229a22.463 22.463 0 0 0 43.11-8.848v-26.888a8 8 0 0 1 8-8 8 8 0 0 1 8 8v26.911a22.464 22.464 0 0 0 43.111 8.848l11.232-26.231a253.522 253.522 0 0 0 13.331-40.107 252.375 252.375 0 0 0 13.315 40.09l11.241 26.229a22.463 22.463 0 0 0 43.113-8.846v-26.909a7.948 7.948 0 0 1 2.307-5.621l.039-.038a8 8 0 0 1 13.654 5.657v26.911a22.463 22.463 0 0 0 43.11 8.849l11.242-26.23a253.593 253.593 0 0 0 13.656-41.492 252.3 252.3 0 0 0 13.638 41.49l11.241 26.23a22.463 22.463 0 0 0 43.113-8.847v-26.909a7.946 7.946 0 0 1 2.344-5.657l.037-.036a8 8 0 0 1 13.619 5.691v26.911a22.463 22.463 0 0 0 43.11 8.849l11.242-26.23a253.584 253.584 0 0 0 14.415-44.722l3.7-16.63a144.071 144.071 0 0 0 -3.551-75.499zm-139.471 5.743 1.681-6.406a16.013 16.013 0 0 1 15.393-12.066h.05a25.054 25.054 0 0 1 17.472 7.119l.1.1a41.453 41.453 0 0 0 55.814 1.527c1.933-1.683 3.768-3.288 5.4-4.726a16.55 16.55 0 0 1 10.953-4.122h.061a15.965 15.965 0 0 1 15.167 11.08l2.156 6.674a128.055 128.055 0 0 1 6.056 45.024h-35.748a16.019 16.019 0 0 0 -16-16h-32a16.019 16.019 0 0 0 -16 16h-35.309a150.061 150.061 0 0 1 4.754-44.204zm78.562 60.2h-32.007v-16h32zm-230.564-60.194 1.684-6.408a16.01 16.01 0 0 1 15.392-12.065h.05a25.054 25.054 0 0 1 17.472 7.119l.1.1a41.454 41.454 0 0 0 55.816 1.526c1.932-1.684 3.767-3.288 5.4-4.724a16.553 16.553 0 0 1 10.954-4.123h.061a15.965 15.965 0 0 1 15.166 11.08l2.156 6.674a128.055 128.055 0 0 1 6.056 45.024h-35.75a16.019 16.019 0 0 0 -16-16h-32a16.019 16.019 0 0 0 -16 16h-35.309a150.083 150.083 0 0 1 4.752-44.203zm78.564 60.2h-32.007v-16h32v7.905.095s0 .065 0 .1zm-229.907-60.19 1.683-6.408a16.012 16.012 0 0 1 15.392-12.066h.051a25.069 25.069 0 0 1 17.49 7.139l.079.077a41.452 41.452 0 0 0 55.815 1.526c1.932-1.683 3.768-3.287 5.4-4.724a16.553 16.553 0 0 1 10.954-4.123h.062a15.966 15.966 0 0 1 15.166 11.081l2.156 6.673a128.065 128.065 0 0 1 6.056 45.009h-36.404a16.019 16.019 0 0 0 -16-16h-32a16.019 16.019 0 0 0 -16 16h-34.658a150.055 150.055 0 0 1 4.758-44.184zm77.911 60.184h-32.011v-16h32l.005 7.9c0 .036-.005.07-.005.1s.005.072.005.108zm45.789 22.73a237.346 237.346 0 0 1 -13.5 41.89l-11.241 26.23a6.463 6.463 0 0 1 -12.4-2.546v-26.911a24 24 0 0 0 -24-24 24.005 24.005 0 0 0 -24 24v26.913a6.463 6.463 0 0 1 -12.4 2.546l-11.254-26.231a236.192 236.192 0 0 1 -13.485-41.895l-2.791-12.6c-.741-3.35-1.351-6.728-1.858-10.122h33.129a16.019 16.019 0 0 0 16 16h32a16.019 16.019 0 0 0 16-16h34.679c-.35 2.039-.733 4.075-1.183 6.1zm151.348-.016a237.33 237.33 0 0 1 -13.5 41.891l-11.248 26.23a6.463 6.463 0 0 1 -12.4-2.546v-26.911a24.007 24.007 0 0 0 -40.91-17.032l-.063.063a23.842 23.842 0 0 0 -7.027 16.971v26.909a6.463 6.463 0 0 1 -12.4 2.546l-11.247-26.229a236.2 236.2 0 0 1 -13.486-41.9l-2.79-12.6c-.741-3.346-1.35-6.719-1.857-10.108h33.78a16.019 16.019 0 0 0 16 16h32a16.019 16.019 0 0 0 16-16h34.02c-.349 2.034-.731 4.065-1.18 6.085zm152 0a237.5 237.5 0 0 1 -13.5 41.891l-11.248 26.23a6.463 6.463 0 0 1 -12.4-2.546v-26.911a24.007 24.007 0 0 0 -40.97-16.972l-.062.063a23.845 23.845 0 0 0 -6.968 16.911v26.909a6.463 6.463 0 0 1 -12.4 2.546l-11.247-26.229a236.2 236.2 0 0 1 -13.486-41.9l-2.79-12.6c-.741-3.346-1.35-6.719-1.857-10.108h33.78a16.019 16.019 0 0 0 16 16h32a16.019 16.019 0 0 0 16-16h34.024c-.349 2.034-.731 4.065-1.18 6.085z" fill="url(#linear-gradient)"></path></svg>