<svg xmlns="http://www.w3.org/2000/svg" width="130" height="108" viewBox="0 0 130 108" fill="none"><path d="M5.64533 27.5614C0.0280666 36.7495 -0.563964 52.6579 3.55072 62.6027C7.1547 71.3133 14.324 79.4892 23.7351 80.5135C27.1959 80.8901 30.733 80.2747 34.1582 80.8955C45.9374 83.0298 50.3188 94.4744 59.473 102.153C66.7155 108.227 85.7649 108.706 93.2649 107.081C101.408 105.316 107.96 102.609 114.774 97.8371C120.154 94.0691 124.188 90.4364 126.843 84.4464C132.408 71.8905 127.861 59.8107 117.69 50.5434C114.522 47.6569 110.992 45.111 108.345 41.7451C105.698 38.3789 104.013 33.887 105.274 29.8014C106.281 26.5418 108.989 24.015 110.015 20.7615C111.412 16.3342 109.304 11.3678 105.843 8.25767C102.382 5.14781 97.8019 3.58437 93.2649 2.51137C74.2564 -1.98516 22.6033 -0.176149 5.64533 27.5614Z" fill="white"></path></svg>