<svg xmlns="http://www.w3.org/2000/svg" xmlns:xlink="http://www.w3.org/1999/xlink" id="eHB0mcRu68T1" viewBox="0 0 60 61"><style><![CDATA[#eHB0mcRu68T2 {animation: eHB0mcRu68T2__m 3000ms linear infinite normal forwards}@keyframes eHB0mcRu68T2__m { 0% {d: path('M53.8994,26.335L50.7288,26.335L49.1129,23.1033C49.0351,22.9475,48.9154,22.8166,48.7673,22.725C48.6192,22.6335,48.4485,22.585,48.2744,22.585L30.4595,22.585L30.4595,16.96L34.2119,16.96L34.2119,19.7725C34.2119,20.0211,34.3107,20.2596,34.4865,20.4354C34.6623,20.6112,34.9008,20.71,35.1494,20.71L44.5244,20.71C44.7731,20.71,45.0115,20.6112,45.1873,20.4354C45.3632,20.2596,45.4619,20.0211,45.4619,19.7725L45.4619,12.2725C45.4619,12.0238,45.3632,11.7854,45.1873,11.6095C45.0115,11.4337,44.7731,11.335,44.5244,11.335L35.1494,11.335C34.9008,11.335,34.6623,11.4337,34.4865,11.6095C34.3107,11.7854,34.2119,12.0238,34.2119,12.2725L34.2119,15.085L30.4595,15.085L30.4595,8.52246C30.4595,8.27382,30.3607,8.03536,30.1849,7.85955C30.0091,7.68373,29.7706,7.58496,29.522,7.58496L22.022,7.58496C21.8989,7.58496,21.7769,7.6092,21.6632,7.65631C21.5494,7.70342,21.4461,7.77248,21.359,7.85953L19.3397,9.87879C18.5528,9.45686,17.6619,9.26815,16.7715,9.3348C15.8812,9.40145,15.0283,9.7207,14.313,10.2551L12.8424,8.94645C12.7504,8.86451,12.6432,8.80151,12.5268,8.76104C12.4105,8.72058,12.2873,8.70344,12.1643,8.71062C12.0413,8.71779,11.921,8.74913,11.8101,8.80284C11.6992,8.85656,11.6001,8.9316,11.5182,9.02367L10.2724,10.4244C10.1127,10.6109,10.0326,10.8526,10.0492,11.0976C10.0658,11.3426,10.1779,11.5712,10.3613,11.7344C10.5447,11.8977,10.7848,11.9824,11.0301,11.9705C11.2753,11.9586,11.5061,11.8509,11.6728,11.6707L12.296,10.9704L12.997,11.5935L12.3738,12.2939C12.2085,12.4796,12.1238,12.7234,12.1383,12.9716C12.1527,13.2198,12.2652,13.4521,12.4509,13.6174L18.0539,18.603C18.1459,18.6849,18.253,18.7478,18.3693,18.7883C18.4856,18.8287,18.6088,18.8458,18.7317,18.8386C18.8546,18.8315,18.9749,18.8002,19.0857,18.7465C19.1965,18.6929,19.2957,18.6179,19.3775,18.5259L20.0007,17.8255L20.701,18.4487L20.0778,19.1491C19.9957,19.2411,19.9324,19.3483,19.8918,19.4647C19.8511,19.5811,19.8338,19.7043,19.8408,19.8274C19.8479,19.9505,19.8791,20.071,19.9328,20.182C19.9864,20.293,20.0615,20.3923,20.1536,20.4743C20.2457,20.5563,20.3531,20.6192,20.4695,20.6596C20.586,20.7,20.7093,20.7171,20.8324,20.7098C20.9555,20.7025,21.0759,20.6709,21.1868,20.617C21.2977,20.5631,21.3968,20.4878,21.4786,20.3955L22.725,18.9948C22.8069,18.9028,22.8699,18.7956,22.9104,18.6792C22.9508,18.5629,22.968,18.4397,22.9608,18.3167C22.9536,18.1937,22.9223,18.0733,22.8686,17.9625C22.8149,17.8516,22.7398,17.7524,22.6477,17.6706L21.1767,16.3622C21.6488,15.545,21.8639,14.6046,21.7941,13.6635C21.7242,12.7223,21.3726,11.824,20.7849,11.0855L22.4106,9.45996L28.5848,9.45996L28.5848,26.335L24.8369,26.335L24.8369,25.3975C24.8361,24.6518,24.5395,23.9369,24.0122,23.4096C23.485,22.8824,22.7701,22.5858,22.0244,22.585L21.0869,22.585C20.8383,22.585,20.5998,22.6837,20.424,22.8595C20.2482,23.0354,20.1494,23.2738,20.1494,23.5225C20.1494,23.7711,20.2482,24.0096,20.424,24.1854C20.5998,24.3612,20.8383,24.46,21.0869,24.46L22.0244,24.46C22.273,24.4602,22.5113,24.5591,22.687,24.7349C22.8628,24.9106,22.9616,25.1489,22.9619,25.3975L22.9619,26.335L22.0244,26.335C21.7758,26.335,21.5373,26.4337,21.3615,26.6095C21.1857,26.7854,21.0869,27.0238,21.0869,27.2725L21.0869,31.96L19.2716,31.96L11.3638,24.052C11.1026,23.7909,10.7925,23.5837,10.4513,23.4424C10.1101,23.301,9.74434,23.2283,9.37499,23.2283C9.00564,23.2283,8.63991,23.301,8.29868,23.4424C7.95745,23.5837,7.64741,23.7909,7.38624,24.0521C7.12508,24.3133,6.91791,24.6233,6.77658,24.9645C6.63524,25.3058,6.56249,25.6715,6.5625,26.0409C6.56251,26.4102,6.63526,26.7759,6.77661,27.1172C6.91795,27.4584,7.12513,27.7684,7.3863,28.0296L16.397,37.0403L16.397,38.5225C16.3978,39.1669,16.6196,39.7915,17.0253,40.2922C17.4309,40.7929,17.996,41.1393,18.6262,41.2738L22.3059,47.8975L12.6497,47.8975C11.904,47.8983,11.1891,48.1949,10.6618,48.7222C10.1346,49.2494,9.838,49.9643,9.83716,50.71L9.83716,52.585C9.83716,52.8336,9.93593,53.0721,10.1117,53.2479C10.2876,53.4237,10.526,53.5225,10.7747,53.5225L46.3997,53.5225C46.6483,53.5225,46.8868,53.4237,47.0626,53.2479C47.2384,53.0721,47.3372,52.8336,47.3372,52.585L47.3372,50.71C47.3363,49.9643,47.0397,49.2494,46.5125,48.7222C45.9852,48.1949,45.2703,47.8983,44.5247,47.8975L36.0872,47.8975L36.0872,46.0225C36.0863,45.2768,35.7897,44.5619,35.2625,44.0347C34.7352,43.5074,34.0203,43.2108,33.2747,43.21L26.7122,43.21C26.7017,43.21,26.6917,43.2113,26.6815,43.2115L25.5554,41.335L35.0113,41.335L38.5061,44.83C38.7672,45.0912,39.0772,45.2985,39.4184,45.44C39.7596,45.5814,40.1253,45.6543,40.4946,45.6545C40.864,45.6546,41.2297,45.582,41.571,45.4408C41.9123,45.2996,42.2224,45.0925,42.4837,44.8314C42.7449,44.5704,42.9522,44.2604,43.0937,43.9192C43.2352,43.578,43.308,43.2123,43.3082,42.843C43.3083,42.4736,43.2357,42.1079,43.0945,41.7666C42.9533,41.4253,42.7462,41.1152,42.4851,40.8539L33.9404,32.2373C33.8532,32.1494,33.7495,32.0797,33.6353,32.0321C33.521,31.9845,33.3985,31.96,33.2747,31.96L32.3372,31.96L32.3372,27.2725C32.3372,27.0238,32.2384,26.7854,32.0626,26.6095C31.8868,26.4337,31.6483,26.335,31.3997,26.335L30.4597,26.335L30.4597,24.46L47.6951,24.46L48.6326,26.335L45.4619,26.335C45.2133,26.335,44.9748,26.4337,44.799,26.6095C44.6232,26.7854,44.5244,27.0238,44.5244,27.2725L44.5244,31.96L42.6494,31.96C42.4008,31.96,42.1623,32.0587,41.9865,32.2345C41.8107,32.4104,41.7119,32.6488,41.7119,32.8975C41.7119,33.1461,41.8107,33.3846,41.9865,33.5604C42.1623,33.7362,42.4008,33.835,42.6494,33.835L44.5244,33.835L44.5244,35.71C44.5241,36.253,44.681,36.7846,44.9764,37.2404C45.2717,37.6961,45.6928,38.0566,46.1887,38.2781C46.6845,38.4996,47.2339,38.5727,47.7705,38.4886C48.307,38.4044,48.8077,38.1667,49.2119,37.804C49.6162,38.1667,50.1169,38.4044,50.6534,38.4886C51.1899,38.5727,51.7393,38.4996,52.2352,38.2781C52.7311,38.0566,53.1521,37.6961,53.4475,37.2404C53.7428,36.7846,53.8998,36.253,53.8994,35.71L53.8994,33.835C54.1481,33.835,54.3865,33.7362,54.5623,33.5604C54.7382,33.3846,54.8369,33.1461,54.8369,32.8975L54.8369,27.2725C54.8369,27.0238,54.7382,26.7854,54.5623,26.6095C54.3865,26.4337,54.1481,26.335,53.8994,26.335ZM36.0869,13.21L43.5869,13.21L43.5869,18.835L36.0869,18.835L36.0869,13.21ZM18.5997,16.5792L14.3975,12.84L15.0207,12.1396C15.4963,11.605,16.1578,11.2718,16.8704,11.208C17.583,11.1441,18.2932,11.3544,18.8563,11.7959C18.8701,11.8076,18.8843,11.8186,18.8986,11.8295C18.93,11.855,18.961,11.8811,18.9915,11.9081C19.548,12.4045,19.8849,13.1013,19.9283,13.8457C19.9716,14.5901,19.718,15.3213,19.2229,15.8789L18.5997,16.5792ZM45.4619,50.71L45.4619,51.6475L11.7119,51.6475L11.7119,50.71C11.7122,50.4614,11.8111,50.2231,11.9868,50.0474C12.1626,49.8716,12.4009,49.7727,12.6494,49.7725L44.5244,49.7725C44.773,49.7727,45.0113,49.8716,45.187,50.0474C45.3628,50.2231,45.4616,50.4614,45.4619,50.71ZM33.2744,45.085C33.523,45.0852,33.7613,45.1841,33.937,45.3599C34.1128,45.5356,34.2116,45.7739,34.2119,46.0225L34.2119,47.8975L27.6494,47.8975L27.6494,45.085L33.2744,45.085ZM25.7744,45.3447L25.7744,47.8975L24.451,47.8975L20.8052,41.335L23.3681,41.335L25.7744,45.3447ZM19.2095,39.46C18.9609,39.4597,18.7226,39.3608,18.5469,39.1851C18.3711,39.0093,18.2722,38.771,18.272,38.5225L18.272,37.585L31.261,37.585L33.136,39.46L19.2095,39.46ZM41.1548,42.1755L41.1576,42.1782C41.3284,42.3551,41.4228,42.5919,41.4206,42.8377C41.4185,43.0835,41.3198,43.3187,41.146,43.4924C40.9721,43.6662,40.737,43.7648,40.4912,43.7669C40.2454,43.769,40.0086,43.6744,39.8318,43.5036L36.0712,39.7432L36.0547,39.7267L32.3126,35.9845C32.2255,35.8975,32.1221,35.8284,32.0084,35.7813C31.8947,35.7342,31.7727,35.71,31.6496,35.71L17.7183,35.71L8.71204,26.7038C8.62499,26.6167,8.55593,26.5133,8.50881,26.3996C8.4617,26.2858,8.43745,26.1639,8.43745,26.0408C8.43745,25.9177,8.4617,25.7958,8.50881,25.682C8.55593,25.5683,8.62499,25.4649,8.71204,25.3779C8.88786,25.2021,9.12633,25.1033,9.37497,25.1033C9.49809,25.1033,9.62,25.1275,9.73375,25.1747C9.84749,25.2218,9.95085,25.2908,10.0379,25.3779L18.2204,33.5604C18.3962,33.7362,18.6346,33.8349,18.8832,33.835L32.8837,33.835L41.1548,42.1755ZM30.4619,31.96L22.9619,31.96L22.9619,28.21L30.4619,28.21L30.4619,31.96ZM46.3994,28.21L52.9619,28.21L52.9619,31.96L50.1494,31.96L50.1494,30.085C50.1494,29.8363,50.0507,29.5979,49.8748,29.422C49.699,29.2462,49.4606,29.1475,49.2119,29.1475C48.9633,29.1475,48.7248,29.2462,48.549,29.422C48.3732,29.5979,48.2744,29.8363,48.2744,30.085L48.2744,31.96L46.3994,31.96L46.3994,28.21ZM47.3369,36.6475C47.0884,36.6472,46.8501,36.5483,46.6743,36.3726C46.4986,36.1968,46.3997,35.9585,46.3994,35.71L46.3994,33.835L48.2744,33.835L48.2744,35.71C48.2742,35.9585,48.1753,36.1968,47.9995,36.3726C47.8238,36.5483,47.5855,36.6472,47.3369,36.6475ZM52.0244,35.71C52.0244,35.9586,51.9257,36.1971,51.7498,36.3729C51.574,36.5487,51.3356,36.6475,51.0869,36.6475C50.8383,36.6475,50.5998,36.5487,50.424,36.3729C50.2482,36.1971,50.1494,35.9586,50.1494,35.71L50.1494,33.835L52.0244,33.835L52.0244,35.71ZM26.7119,13.21L24.8369,13.21L24.8369,11.335L26.7119,11.335L26.7119,13.21ZM24.8369,15.085L26.7119,15.085L26.7119,18.835L24.8369,18.835L24.8369,15.085Z')} 50% {d: path('M53.8994,25.335L50.7288,25.335L49.1129,23.1033C49.0351,22.9475,48.9154,22.8166,48.7673,22.725C48.6192,22.6335,48.4485,22.585,48.2744,22.585L30.4595,22.585L30.4595,16.96L34.2119,16.96L34.2119,19.7725C34.2119,20.0211,34.3107,20.2596,34.4865,20.4354C34.6623,20.6112,34.9008,20.71,35.1494,20.71L44.5244,20.71C44.7731,20.71,45.0115,20.6112,45.1873,20.4354C45.3632,20.2596,45.4619,20.0211,45.4619,19.7725L45.4619,12.2725C45.4619,12.0238,45.3632,11.7854,45.1873,11.6095C45.0115,11.4337,44.7731,11.335,44.5244,11.335L35.1494,11.335C34.9008,11.335,34.6623,11.4337,34.4865,11.6095C34.3107,11.7854,34.2119,12.0238,34.2119,12.2725L34.2119,15.085L30.4595,15.085L30.4595,8.52246C30.4595,8.27382,30.3607,8.03536,30.1849,7.85955C30.0091,7.68373,29.7706,7.58496,29.522,7.58496L22.022,7.58496C21.8989,7.58496,21.7769,7.6092,21.6632,7.65631C21.5494,7.70342,21.4461,7.77248,21.359,7.85953L20.3397,8.87879C19.5528,8.45686,18.6619,8.26815,17.7715,8.3348C16.8812,8.40145,16.0283,8.7207,15.313,9.2551L13.8424,7.94645C13.7504,7.86451,13.6432,7.80151,13.5268,7.76104C13.4105,7.72058,13.2873,7.70344,13.1643,7.71062C13.0413,7.71779,12.921,7.74913,12.8101,7.80284C12.6992,7.85656,12.6001,7.9316,12.5182,8.02367L11.2724,9.4244C11.1127,9.6109,11.0326,9.8526,11.0492,10.0976C11.0658,10.3426,11.1779,10.5712,11.3613,10.7344C11.5447,10.8977,11.7848,10.9824,12.0301,10.9705C12.2753,10.9586,12.5061,10.8509,12.6728,10.6707L13.296,9.9704L13.997,10.5935L13.3738,11.2939C13.2085,11.4796,13.1238,11.7234,13.1383,11.9716C13.1527,12.2198,13.2652,12.4521,13.4509,12.6174L19.0539,17.603C19.1459,17.6849,19.253,17.7478,19.3693,17.7883C19.4856,17.8287,19.6088,17.8458,19.7317,17.8386C19.8546,17.8315,19.9749,17.8002,20.0857,17.7465C20.1965,17.6929,20.2957,17.6179,20.3775,17.5259L21.0007,16.8255L21.701,17.4487L21.0778,18.1491C20.9957,18.2411,20.9324,18.3483,20.8918,18.4647C20.8511,18.5811,20.8338,18.7043,20.8408,18.8274C20.8479,18.9505,20.8791,19.071,20.9328,19.182C20.9864,19.293,21.0615,19.3923,21.1536,19.4743C21.2457,19.5563,21.3531,19.6192,21.4695,19.6596C21.586,19.7,21.7093,19.7171,21.8324,19.7098C21.9555,19.7025,22.0759,19.6709,22.1868,19.617C22.2977,19.5631,22.3968,19.4878,22.4786,19.3955L23.725,17.9948C23.8069,17.9028,23.8699,17.7956,23.9104,17.6792C23.9508,17.5629,23.968,17.4397,23.9608,17.3167C23.9536,17.1937,23.9223,17.0733,23.8686,16.9625C23.8149,16.8516,23.7398,16.7524,23.6477,16.6706L22.1767,15.3622C22.6488,14.545,22.8639,13.6046,22.7941,12.6635C22.7242,11.7223,22.3726,10.824,21.7849,10.0855L22.4106,9.45996L28.5848,9.45996L28.5848,26.335L24.8369,26.335L24.8369,25.3975C24.8361,24.6518,24.5395,23.9369,24.0122,23.4096C23.485,22.8824,22.7701,22.5858,22.0244,22.585L21.0869,22.585C20.8383,22.585,20.5998,22.6837,20.424,22.8595C20.2482,23.0354,20.1494,23.2738,20.1494,23.5225C20.1494,23.7711,20.2482,24.0096,20.424,24.1854C20.5998,24.3612,20.8383,24.46,21.0869,24.46L22.0244,24.46C22.273,24.4602,22.5113,24.5591,22.687,24.7349C22.8628,24.9106,22.9616,25.1489,22.9619,25.3975L22.9619,26.335L22.0244,26.335C21.7758,26.335,21.5373,26.4337,21.3615,26.6095C21.1857,26.7854,21.0869,27.0238,21.0869,27.2725L21.0869,31.96L19.2716,31.96L11.3638,24.052C11.1026,23.7909,10.7925,23.5837,10.4513,23.4424C10.1101,23.301,9.74434,23.2283,9.37499,23.2283C9.00564,23.2283,8.63991,23.301,8.29868,23.4424C7.95745,23.5837,7.64741,23.7909,7.38624,24.0521C7.12508,24.3133,6.91791,24.6233,6.77658,24.9645C6.63524,25.3058,6.56249,25.6715,6.5625,26.0409C6.56251,26.4102,6.63526,26.7759,6.77661,27.1172C6.91795,27.4584,7.12513,27.7684,7.3863,28.0296L16.397,37.0403L16.397,38.5225C16.3978,39.1669,16.6196,39.7915,17.0253,40.2922C17.4309,40.7929,17.996,41.1393,18.6262,41.2738L22.3059,47.8975L12.6497,47.8975C11.904,47.8983,11.1891,48.1949,10.6618,48.7222C10.1346,49.2494,9.838,49.9643,9.83716,50.71L9.83716,52.585C9.83716,52.8336,9.93593,53.0721,10.1117,53.2479C10.2876,53.4237,10.526,53.5225,10.7747,53.5225L46.3997,53.5225C46.6483,53.5225,46.8868,53.4237,47.0626,53.2479C47.2384,53.0721,47.3372,52.8336,47.3372,52.585L47.3372,50.71C47.3363,49.9643,47.0397,49.2494,46.5125,48.7222C45.9852,48.1949,45.2703,47.8983,44.5247,47.8975L36.0872,47.8975L36.0872,46.0225C36.0863,45.2768,35.7897,44.5619,35.2625,44.0347C34.7352,43.5074,34.0203,43.2108,33.2747,43.21L26.7122,43.21C26.7017,43.21,26.6917,43.2113,26.6815,43.2115L25.5554,41.335L35.0113,41.335L38.5061,44.83C38.7672,45.0912,39.0772,45.2985,39.4184,45.44C39.7596,45.5814,40.1253,45.6543,40.4946,45.6545C40.864,45.6546,41.2297,45.582,41.571,45.4408C41.9123,45.2996,42.2224,45.0925,42.4837,44.8314C42.7449,44.5704,42.9522,44.2604,43.0937,43.9192C43.2352,43.578,43.308,43.2123,43.3082,42.843C43.3083,42.4736,43.2357,42.1079,43.0945,41.7666C42.9533,41.4253,42.7462,41.1152,42.4851,40.8539L33.9404,32.2373C33.8532,32.1494,33.7495,32.0797,33.6353,32.0321C33.521,31.9845,33.3985,31.96,33.2747,31.96L32.3372,31.96L32.3372,27.2725C32.3372,27.0238,32.2384,26.7854,32.0626,26.6095C31.8868,26.4337,31.6483,26.335,31.3997,26.335L30.4597,26.335L30.4597,24.46L47.6951,24.46L48.549,25.3975L45.4619,25.335C45.2133,25.335,44.9748,25.4337,44.799,25.6095C44.6232,25.7854,44.5244,26.0238,44.5244,26.2725L44.5244,30.96L42.6494,30.96C42.4008,30.96,42.1623,31.0587,41.9865,31.2345C41.8107,31.4104,41.7119,31.6488,41.7119,31.8975C41.7119,32.1461,41.8107,32.3846,41.9865,32.5604C42.1623,32.7362,42.4008,32.835,42.6494,32.835L44.5244,32.835L44.5244,34.71C44.5241,35.253,44.681,35.7846,44.9764,36.2404C45.2717,36.6961,45.6928,37.0566,46.1887,37.2781C46.6845,37.4996,47.2339,37.5727,47.7705,37.4886C48.307,37.4044,48.8077,37.1667,49.2119,36.804C49.6162,37.1667,50.1169,37.4044,50.6534,37.4886C51.1899,37.5727,51.7393,37.4996,52.2352,37.2781C52.7311,37.0566,53.1521,36.6961,53.4475,36.2404C53.7428,35.7846,53.8998,35.253,53.8994,34.71L53.8994,32.835C54.1481,32.835,54.3865,32.7362,54.5623,32.5604C54.7382,32.3846,54.8369,32.1461,54.8369,31.8975L54.8369,26.2725C54.8369,26.0238,54.7382,25.7854,54.5623,25.6095C54.3865,25.4337,54.1481,25.335,53.8994,25.335ZM36.0869,13.21L43.5869,13.21L43.5869,18.835L36.0869,18.835L36.0869,13.21ZM19.5997,15.5792L15.3975,11.84L16.0207,11.1396C16.4963,10.605,17.1578,10.2718,17.8704,10.208C18.583,10.1441,19.2932,10.3544,19.8563,10.7959C19.8701,10.8076,19.8843,10.8186,19.8986,10.8295C19.93,10.855,19.961,10.8811,19.9915,10.9081C20.548,11.4045,20.8849,12.1013,20.9283,12.8457C20.9716,13.5901,20.718,14.3213,20.2229,14.8789L19.5997,15.5792ZM45.4619,50.71L45.4619,51.6475L11.7119,51.6475L11.7119,50.71C11.7122,50.4614,11.8111,50.2231,11.9868,50.0474C12.1626,49.8716,12.4009,49.7727,12.6494,49.7725L44.5244,49.7725C44.773,49.7727,45.0113,49.8716,45.187,50.0474C45.3628,50.2231,45.4616,50.4614,45.4619,50.71ZM33.2744,45.085C33.523,45.0852,33.7613,45.1841,33.937,45.3599C34.1128,45.5356,34.2116,45.7739,34.2119,46.0225L34.2119,47.8975L27.6494,47.8975L27.6494,45.085L33.2744,45.085ZM25.7744,45.3447L25.7744,47.8975L24.451,47.8975L20.8052,41.335L23.3681,41.335L25.7744,45.3447ZM19.2095,39.46C18.9609,39.4597,18.7226,39.3608,18.5469,39.1851C18.3711,39.0093,18.2722,38.771,18.272,38.5225L18.272,37.585L31.261,37.585L33.136,39.46L19.2095,39.46ZM41.1548,42.1755L41.1576,42.1782C41.3284,42.3551,41.4228,42.5919,41.4206,42.8377C41.4185,43.0835,41.3198,43.3187,41.146,43.4924C40.9721,43.6662,40.737,43.7648,40.4912,43.7669C40.2454,43.769,40.0086,43.6744,39.8318,43.5036L36.0712,39.7432L36.0547,39.7267L32.3126,35.9845C32.2255,35.8975,32.1221,35.8284,32.0084,35.7813C31.8947,35.7342,31.7727,35.71,31.6496,35.71L17.7183,35.71L8.71204,26.7038C8.62499,26.6167,8.55593,26.5133,8.50881,26.3996C8.4617,26.2858,8.43745,26.1639,8.43745,26.0408C8.43745,25.9177,8.4617,25.7958,8.50881,25.682C8.55593,25.5683,8.62499,25.4649,8.71204,25.3779C8.88786,25.2021,9.12633,25.1033,9.37497,25.1033C9.49809,25.1033,9.62,25.1275,9.73375,25.1747C9.84749,25.2218,9.95085,25.2908,10.0379,25.3779L18.2204,33.5604C18.3962,33.7362,18.6346,33.8349,18.8832,33.835L32.8837,33.835L41.1548,42.1755ZM30.4619,31.96L22.9619,31.96L22.9619,28.21L30.4619,28.21L30.4619,31.96ZM46.3994,27.21L52.9619,27.21L52.9619,30.96L50.1494,30.96L50.1494,29.085C50.1494,28.8363,50.0507,28.5979,49.8748,28.422C49.699,28.2462,49.4606,28.1475,49.2119,28.1475C48.9633,28.1475,48.7248,28.2462,48.549,28.422C48.3732,28.5979,48.2744,28.8363,48.2744,29.085L48.2744,30.96L46.3994,30.96L46.3994,27.21ZM47.3369,35.6475C47.0884,35.6472,46.8501,35.5483,46.6743,35.3726C46.4986,35.1968,46.3997,34.9585,46.3994,34.71L46.3994,32.835L48.2744,32.835L48.2744,34.71C48.2742,34.9585,48.1753,35.1968,47.9995,35.3726C47.8238,35.5483,47.5855,35.6472,47.3369,35.6475ZM52.0244,34.71C52.0244,34.9586,51.9257,35.1971,51.7498,35.3729C51.574,35.5487,51.3356,35.6475,51.0869,35.6475C50.8383,35.6475,50.5998,35.5487,50.424,35.3729C50.2482,35.1971,50.1494,34.9586,50.1494,34.71L50.1494,32.835L52.0244,32.835L52.0244,34.71ZM26.7119,13.21L24.8369,13.21L24.8369,11.335L26.7119,11.335L26.7119,13.21ZM24.8369,15.085L26.7119,15.085L26.7119,18.835L24.8369,18.835L24.8369,15.085Z')} 100% {d: path('M53.8994,26.335L50.7288,26.335L49.1129,23.1033C49.0351,22.9475,48.9154,22.8166,48.7673,22.725C48.6192,22.6335,48.4485,22.585,48.2744,22.585L30.4595,22.585L30.4595,16.96L34.2119,16.96L34.2119,19.7725C34.2119,20.0211,34.3107,20.2596,34.4865,20.4354C34.6623,20.6112,34.9008,20.71,35.1494,20.71L44.5244,20.71C44.7731,20.71,45.0115,20.6112,45.1873,20.4354C45.3632,20.2596,45.4619,20.0211,45.4619,19.7725L45.4619,12.2725C45.4619,12.0238,45.3632,11.7854,45.1873,11.6095C45.0115,11.4337,44.7731,11.335,44.5244,11.335L35.1494,11.335C34.9008,11.335,34.6623,11.4337,34.4865,11.6095C34.3107,11.7854,34.2119,12.0238,34.2119,12.2725L34.2119,15.085L30.4595,15.085L30.4595,8.52246C30.4595,8.27382,30.3607,8.03536,30.1849,7.85955C30.0091,7.68373,29.7706,7.58496,29.522,7.58496L22.022,7.58496C21.8989,7.58496,21.7769,7.6092,21.6632,7.65631C21.5494,7.70342,21.4461,7.77248,21.359,7.85953L19.3397,9.87879C18.5528,9.45686,17.6619,9.26815,16.7715,9.3348C15.8812,9.40145,15.0283,9.7207,14.313,10.2551L12.8424,8.94645C12.7504,8.86451,12.6432,8.80151,12.5268,8.76104C12.4105,8.72058,12.2873,8.70344,12.1643,8.71062C12.0413,8.71779,11.921,8.74913,11.8101,8.80284C11.6992,8.85656,11.6001,8.9316,11.5182,9.02367L10.2724,10.4244C10.1127,10.6109,10.0326,10.8526,10.0492,11.0976C10.0658,11.3426,10.1779,11.5712,10.3613,11.7344C10.5447,11.8977,10.7848,11.9824,11.0301,11.9705C11.2753,11.9586,11.5061,11.8509,11.6728,11.6707L12.296,10.9704L12.997,11.5935L12.3738,12.2939C12.2085,12.4796,12.1238,12.7234,12.1383,12.9716C12.1527,13.2198,12.2652,13.4521,12.4509,13.6174L18.0539,18.603C18.1459,18.6849,18.253,18.7478,18.3693,18.7883C18.4856,18.8287,18.6088,18.8458,18.7317,18.8386C18.8546,18.8315,18.9749,18.8002,19.0857,18.7465C19.1965,18.6929,19.2957,18.6179,19.3775,18.5259L20.0007,17.8255L20.701,18.4487L20.0778,19.1491C19.9957,19.2411,19.9324,19.3483,19.8918,19.4647C19.8511,19.5811,19.8338,19.7043,19.8408,19.8274C19.8479,19.9505,19.8791,20.071,19.9328,20.182C19.9864,20.293,20.0615,20.3923,20.1536,20.4743C20.2457,20.5563,20.3531,20.6192,20.4695,20.6596C20.586,20.7,20.7093,20.7171,20.8324,20.7098C20.9555,20.7025,21.0759,20.6709,21.1868,20.617C21.2977,20.5631,21.3968,20.4878,21.4786,20.3955L22.725,18.9948C22.8069,18.9028,22.8699,18.7956,22.9104,18.6792C22.9508,18.5629,22.968,18.4397,22.9608,18.3167C22.9536,18.1937,22.9223,18.0733,22.8686,17.9625C22.8149,17.8516,22.7398,17.7524,22.6477,17.6706L21.1767,16.3622C21.6488,15.545,21.8639,14.6046,21.7941,13.6635C21.7242,12.7223,21.3726,11.824,20.7849,11.0855L22.4106,9.45996L28.5848,9.45996L28.5848,26.335L24.8369,26.335L24.8369,25.3975C24.8361,24.6518,24.5395,23.9369,24.0122,23.4096C23.485,22.8824,22.7701,22.5858,22.0244,22.585L21.0869,22.585C20.8383,22.585,20.5998,22.6837,20.424,22.8595C20.2482,23.0354,20.1494,23.2738,20.1494,23.5225C20.1494,23.7711,20.2482,24.0096,20.424,24.1854C20.5998,24.3612,20.8383,24.46,21.0869,24.46L22.0244,24.46C22.273,24.4602,22.5113,24.5591,22.687,24.7349C22.8628,24.9106,22.9616,25.1489,22.9619,25.3975L22.9619,26.335L22.0244,26.335C21.7758,26.335,21.5373,26.4337,21.3615,26.6095C21.1857,26.7854,21.0869,27.0238,21.0869,27.2725L21.0869,31.96L19.2716,31.96L11.3638,24.052C11.1026,23.7909,10.7925,23.5837,10.4513,23.4424C10.1101,23.301,9.74434,23.2283,9.37499,23.2283C9.00564,23.2283,8.63991,23.301,8.29868,23.4424C7.95745,23.5837,7.64741,23.7909,7.38624,24.0521C7.12508,24.3133,6.91791,24.6233,6.77658,24.9645C6.63524,25.3058,6.56249,25.6715,6.5625,26.0409C6.56251,26.4102,6.63526,26.7759,6.77661,27.1172C6.91795,27.4584,7.12513,27.7684,7.3863,28.0296L16.397,37.0403L16.397,38.5225C16.3978,39.1669,16.6196,39.7915,17.0253,40.2922C17.4309,40.7929,17.996,41.1393,18.6262,41.2738L22.3059,47.8975L12.6497,47.8975C11.904,47.8983,11.1891,48.1949,10.6618,48.7222C10.1346,49.2494,9.838,49.9643,9.83716,50.71L9.83716,52.585C9.83716,52.8336,9.93593,53.0721,10.1117,53.2479C10.2876,53.4237,10.526,53.5225,10.7747,53.5225L46.3997,53.5225C46.6483,53.5225,46.8868,53.4237,47.0626,53.2479C47.2384,53.0721,47.3372,52.8336,47.3372,52.585L47.3372,50.71C47.3363,49.9643,47.0397,49.2494,46.5125,48.7222C45.9852,48.1949,45.2703,47.8983,44.5247,47.8975L36.0872,47.8975L36.0872,46.0225C36.0863,45.2768,35.7897,44.5619,35.2625,44.0347C34.7352,43.5074,34.0203,43.2108,33.2747,43.21L26.7122,43.21C26.7017,43.21,26.6917,43.2113,26.6815,43.2115L25.5554,41.335L35.0113,41.335L38.5061,44.83C38.7672,45.0912,39.0772,45.2985,39.4184,45.44C39.7596,45.5814,40.1253,45.6543,40.4946,45.6545C40.864,45.6546,41.2297,45.582,41.571,45.4408C41.9123,45.2996,42.2224,45.0925,42.4837,44.8314C42.7449,44.5704,42.9522,44.2604,43.0937,43.9192C43.2352,43.578,43.308,43.2123,43.3082,42.843C43.3083,42.4736,43.2357,42.1079,43.0945,41.7666C42.9533,41.4253,42.7462,41.1152,42.4851,40.8539L33.9404,32.2373C33.8532,32.1494,33.7495,32.0797,33.6353,32.0321C33.521,31.9845,33.3985,31.96,33.2747,31.96L32.3372,31.96L32.3372,27.2725C32.3372,27.0238,32.2384,26.7854,32.0626,26.6095C31.8868,26.4337,31.6483,26.335,31.3997,26.335L30.4597,26.335L30.4597,24.46L47.6951,24.46L48.6326,26.335L45.4619,26.335C45.2133,26.335,44.9748,26.4337,44.799,26.6095C44.6232,26.7854,44.5244,27.0238,44.5244,27.2725L44.5244,31.96L42.6494,31.96C42.4008,31.96,42.1623,32.0587,41.9865,32.2345C41.8107,32.4104,41.7119,32.6488,41.7119,32.8975C41.7119,33.1461,41.8107,33.3846,41.9865,33.5604C42.1623,33.7362,42.4008,33.835,42.6494,33.835L44.5244,33.835L44.5244,35.71C44.5241,36.253,44.681,36.7846,44.9764,37.2404C45.2717,37.6961,45.6928,38.0566,46.1887,38.2781C46.6845,38.4996,47.2339,38.5727,47.7705,38.4886C48.307,38.4044,48.8077,38.1667,49.2119,37.804C49.6162,38.1667,50.1169,38.4044,50.6534,38.4886C51.1899,38.5727,51.7393,38.4996,52.2352,38.2781C52.7311,38.0566,53.1521,37.6961,53.4475,37.2404C53.7428,36.7846,53.8998,36.253,53.8994,35.71L53.8994,33.835C54.1481,33.835,54.3865,33.7362,54.5623,33.5604C54.7382,33.3846,54.8369,33.1461,54.8369,32.8975L54.8369,27.2725C54.8369,27.0238,54.7382,26.7854,54.5623,26.6095C54.3865,26.4337,54.1481,26.335,53.8994,26.335ZM36.0869,13.21L43.5869,13.21L43.5869,18.835L36.0869,18.835L36.0869,13.21ZM18.5997,16.5792L14.3975,12.84L15.0207,12.1396C15.4963,11.605,16.1578,11.2718,16.8704,11.208C17.583,11.1441,18.2932,11.3544,18.8563,11.7959C18.8701,11.8076,18.8843,11.8186,18.8986,11.8295C18.93,11.855,18.961,11.8811,18.9915,11.9081C19.548,12.4045,19.8849,13.1013,19.9283,13.8457C19.9716,14.5901,19.718,15.3213,19.2229,15.8789L18.5997,16.5792ZM45.4619,50.71L45.4619,51.6475L11.7119,51.6475L11.7119,50.71C11.7122,50.4614,11.8111,50.2231,11.9868,50.0474C12.1626,49.8716,12.4009,49.7727,12.6494,49.7725L44.5244,49.7725C44.773,49.7727,45.0113,49.8716,45.187,50.0474C45.3628,50.2231,45.4616,50.4614,45.4619,50.71ZM33.2744,45.085C33.523,45.0852,33.7613,45.1841,33.937,45.3599C34.1128,45.5356,34.2116,45.7739,34.2119,46.0225L34.2119,47.8975L27.6494,47.8975L27.6494,45.085L33.2744,45.085ZM25.7744,45.3447L25.7744,47.8975L24.451,47.8975L20.8052,41.335L23.3681,41.335L25.7744,45.3447ZM19.2095,39.46C18.9609,39.4597,18.7226,39.3608,18.5469,39.1851C18.3711,39.0093,18.2722,38.771,18.272,38.5225L18.272,37.585L31.261,37.585L33.136,39.46L19.2095,39.46ZM41.1548,42.1755L41.1576,42.1782C41.3284,42.3551,41.4228,42.5919,41.4206,42.8377C41.4185,43.0835,41.3198,43.3187,41.146,43.4924C40.9721,43.6662,40.737,43.7648,40.4912,43.7669C40.2454,43.769,40.0086,43.6744,39.8318,43.5036L36.0712,39.7432L36.0547,39.7267L32.3126,35.9845C32.2255,35.8975,32.1221,35.8284,32.0084,35.7813C31.8947,35.7342,31.7727,35.71,31.6496,35.71L17.7183,35.71L8.71204,26.7038C8.62499,26.6167,8.55593,26.5133,8.50881,26.3996C8.4617,26.2858,8.43745,26.1639,8.43745,26.0408C8.43745,25.9177,8.4617,25.7958,8.50881,25.682C8.55593,25.5683,8.62499,25.4649,8.71204,25.3779C8.88786,25.2021,9.12633,25.1033,9.37497,25.1033C9.49809,25.1033,9.62,25.1275,9.73375,25.1747C9.84749,25.2218,9.95085,25.2908,10.0379,25.3779L18.2204,33.5604C18.3962,33.7362,18.6346,33.8349,18.8832,33.835L32.8837,33.835L41.1548,42.1755ZM30.4619,31.96L22.9619,31.96L22.9619,28.21L30.4619,28.21L30.4619,31.96ZM46.3994,28.21L52.9619,28.21L52.9619,31.96L50.1494,31.96L50.1494,30.085C50.1494,29.8363,50.0507,29.5979,49.8748,29.422C49.699,29.2462,49.4606,29.1475,49.2119,29.1475C48.9633,29.1475,48.7248,29.2462,48.549,29.422C48.3732,29.5979,48.2744,29.8363,48.2744,30.085L48.2744,31.96L46.3994,31.96L46.3994,28.21ZM47.3369,36.6475C47.0884,36.6472,46.8501,36.5483,46.6743,36.3726C46.4986,36.1968,46.3997,35.9585,46.3994,35.71L46.3994,33.835L48.2744,33.835L48.2744,35.71C48.2742,35.9585,48.1753,36.1968,47.9995,36.3726C47.8238,36.5483,47.5855,36.6472,47.3369,36.6475ZM52.0244,35.71C52.0244,35.9586,51.9257,36.1971,51.7498,36.3729C51.574,36.5487,51.3356,36.6475,51.0869,36.6475C50.8383,36.6475,50.5998,36.5487,50.424,36.3729C50.2482,36.1971,50.1494,35.9586,50.1494,35.71L50.1494,33.835L52.0244,33.835L52.0244,35.71ZM26.7119,13.21L24.8369,13.21L24.8369,11.335L26.7119,11.335L26.7119,13.21ZM24.8369,15.085L26.7119,15.085L26.7119,18.835L24.8369,18.835L24.8369,15.085Z')}}]]></style><defs><linearGradient id="eHB0mcRu68T2-fill" x1="8.64442" y1="51.7808" x2="47.0015" y2="13.4237" spreadMethod="pad" gradientUnits="userSpaceOnUse"><stop id="eHB0mcRu68T2-fill-0" offset="0%" stop-color="rgb(53,224,209)"></stop><stop id="eHB0mcRu68T2-fill-1" offset="100%" stop-color="rgb(238,131,239)"></stop></linearGradient></defs><path id="eHB0mcRu68T2" d="M53.8994,26.335L50.7288,26.335L49.1129,23.1033C49.0351,22.9475,48.9154,22.8166,48.7673,22.725C48.6192,22.6335,48.4485,22.585,48.2744,22.585L30.4595,22.585L30.4595,16.96L34.2119,16.96L34.2119,19.7725C34.2119,20.0211,34.3107,20.2596,34.4865,20.4354C34.6623,20.6112,34.9008,20.71,35.1494,20.71L44.5244,20.71C44.7731,20.71,45.0115,20.6112,45.1873,20.4354C45.3632,20.2596,45.4619,20.0211,45.4619,19.7725L45.4619,12.2725C45.4619,12.0238,45.3632,11.7854,45.1873,11.6095C45.0115,11.4337,44.7731,11.335,44.5244,11.335L35.1494,11.335C34.9008,11.335,34.6623,11.4337,34.4865,11.6095C34.3107,11.7854,34.2119,12.0238,34.2119,12.2725L34.2119,15.085L30.4595,15.085L30.4595,8.52246C30.4595,8.27382,30.3607,8.03536,30.1849,7.85955C30.0091,7.68373,29.7706,7.58496,29.522,7.58496L22.022,7.58496C21.8989,7.58496,21.7769,7.6092,21.6632,7.65631C21.5494,7.70342,21.4461,7.77248,21.359,7.85953L19.3397,9.87879C18.5528,9.45686,17.6619,9.26815,16.7715,9.3348C15.8812,9.40145,15.0283,9.7207,14.313,10.2551L12.8424,8.94645C12.7504,8.86451,12.6432,8.80151,12.5268,8.76104C12.4105,8.72058,12.2873,8.70344,12.1643,8.71062C12.0413,8.71779,11.921,8.74913,11.8101,8.80284C11.6992,8.85656,11.6001,8.9316,11.5182,9.02367L10.2724,10.4244C10.1127,10.6109,10.0326,10.8526,10.0492,11.0976C10.0658,11.3426,10.1779,11.5712,10.3613,11.7344C10.5447,11.8977,10.7848,11.9824,11.0301,11.9705C11.2753,11.9586,11.5061,11.8509,11.6728,11.6707L12.296,10.9704L12.997,11.5935L12.3738,12.2939C12.2085,12.4796,12.1238,12.7234,12.1383,12.9716C12.1527,13.2198,12.2652,13.4521,12.4509,13.6174L18.0539,18.603C18.1459,18.6849,18.253,18.7478,18.3693,18.7883C18.4856,18.8287,18.6088,18.8458,18.7317,18.8386C18.8546,18.8315,18.9749,18.8002,19.0857,18.7465C19.1965,18.6929,19.2957,18.6179,19.3775,18.5259L20.0007,17.8255L20.701,18.4487L20.0778,19.1491C19.9957,19.2411,19.9324,19.3483,19.8918,19.4647C19.8511,19.5811,19.8338,19.7043,19.8408,19.8274C19.8479,19.9505,19.8791,20.071,19.9328,20.182C19.9864,20.293,20.0615,20.3923,20.1536,20.4743C20.2457,20.5563,20.3531,20.6192,20.4695,20.6596C20.586,20.7,20.7093,20.7171,20.8324,20.7098C20.9555,20.7025,21.0759,20.6709,21.1868,20.617C21.2977,20.5631,21.3968,20.4878,21.4786,20.3955L22.725,18.9948C22.8069,18.9028,22.8699,18.7956,22.9104,18.6792C22.9508,18.5629,22.968,18.4397,22.9608,18.3167C22.9536,18.1937,22.9223,18.0733,22.8686,17.9625C22.8149,17.8516,22.7398,17.7524,22.6477,17.6706L21.1767,16.3622C21.6488,15.545,21.8639,14.6046,21.7941,13.6635C21.7242,12.7223,21.3726,11.824,20.7849,11.0855L22.4106,9.45996L28.5848,9.45996L28.5848,26.335L24.8369,26.335L24.8369,25.3975C24.8361,24.6518,24.5395,23.9369,24.0122,23.4096C23.485,22.8824,22.7701,22.5858,22.0244,22.585L21.0869,22.585C20.8383,22.585,20.5998,22.6837,20.424,22.8595C20.2482,23.0354,20.1494,23.2738,20.1494,23.5225C20.1494,23.7711,20.2482,24.0096,20.424,24.1854C20.5998,24.3612,20.8383,24.46,21.0869,24.46L22.0244,24.46C22.273,24.4602,22.5113,24.5591,22.687,24.7349C22.8628,24.9106,22.9616,25.1489,22.9619,25.3975L22.9619,26.335L22.0244,26.335C21.7758,26.335,21.5373,26.4337,21.3615,26.6095C21.1857,26.7854,21.0869,27.0238,21.0869,27.2725L21.0869,31.96L19.2716,31.96L11.3638,24.052C11.1026,23.7909,10.7925,23.5837,10.4513,23.4424C10.1101,23.301,9.74434,23.2283,9.37499,23.2283C9.00564,23.2283,8.63991,23.301,8.29868,23.4424C7.95745,23.5837,7.64741,23.7909,7.38624,24.0521C7.12508,24.3133,6.91791,24.6233,6.77658,24.9645C6.63524,25.3058,6.56249,25.6715,6.5625,26.0409C6.56251,26.4102,6.63526,26.7759,6.77661,27.1172C6.91795,27.4584,7.12513,27.7684,7.3863,28.0296L16.397,37.0403L16.397,38.5225C16.3978,39.1669,16.6196,39.7915,17.0253,40.2922C17.4309,40.7929,17.996,41.1393,18.6262,41.2738L22.3059,47.8975L12.6497,47.8975C11.904,47.8983,11.1891,48.1949,10.6618,48.7222C10.1346,49.2494,9.838,49.9643,9.83716,50.71L9.83716,52.585C9.83716,52.8336,9.93593,53.0721,10.1117,53.2479C10.2876,53.4237,10.526,53.5225,10.7747,53.5225L46.3997,53.5225C46.6483,53.5225,46.8868,53.4237,47.0626,53.2479C47.2384,53.0721,47.3372,52.8336,47.3372,52.585L47.3372,50.71C47.3363,49.9643,47.0397,49.2494,46.5125,48.7222C45.9852,48.1949,45.2703,47.8983,44.5247,47.8975L36.0872,47.8975L36.0872,46.0225C36.0863,45.2768,35.7897,44.5619,35.2625,44.0347C34.7352,43.5074,34.0203,43.2108,33.2747,43.21L26.7122,43.21C26.7017,43.21,26.6917,43.2113,26.6815,43.2115L25.5554,41.335L35.0113,41.335L38.5061,44.83C38.7672,45.0912,39.0772,45.2985,39.4184,45.44C39.7596,45.5814,40.1253,45.6543,40.4946,45.6545C40.864,45.6546,41.2297,45.582,41.571,45.4408C41.9123,45.2996,42.2224,45.0925,42.4837,44.8314C42.7449,44.5704,42.9522,44.2604,43.0937,43.9192C43.2352,43.578,43.308,43.2123,43.3082,42.843C43.3083,42.4736,43.2357,42.1079,43.0945,41.7666C42.9533,41.4253,42.7462,41.1152,42.4851,40.8539L33.9404,32.2373C33.8532,32.1494,33.7495,32.0797,33.6353,32.0321C33.521,31.9845,33.3985,31.96,33.2747,31.96L32.3372,31.96L32.3372,27.2725C32.3372,27.0238,32.2384,26.7854,32.0626,26.6095C31.8868,26.4337,31.6483,26.335,31.3997,26.335L30.4597,26.335L30.4597,24.46L47.6951,24.46L48.6326,26.335L45.4619,26.335C45.2133,26.335,44.9748,26.4337,44.799,26.6095C44.6232,26.7854,44.5244,27.0238,44.5244,27.2725L44.5244,31.96L42.6494,31.96C42.4008,31.96,42.1623,32.0587,41.9865,32.2345C41.8107,32.4104,41.7119,32.6488,41.7119,32.8975C41.7119,33.1461,41.8107,33.3846,41.9865,33.5604C42.1623,33.7362,42.4008,33.835,42.6494,33.835L44.5244,33.835L44.5244,35.71C44.5241,36.253,44.681,36.7846,44.9764,37.2404C45.2717,37.6961,45.6928,38.0566,46.1887,38.2781C46.6845,38.4996,47.2339,38.5727,47.7705,38.4886C48.307,38.4044,48.8077,38.1667,49.2119,37.804C49.6162,38.1667,50.1169,38.4044,50.6534,38.4886C51.1899,38.5727,51.7393,38.4996,52.2352,38.2781C52.7311,38.0566,53.1521,37.6961,53.4475,37.2404C53.7428,36.7846,53.8998,36.253,53.8994,35.71L53.8994,33.835C54.1481,33.835,54.3865,33.7362,54.5623,33.5604C54.7382,33.3846,54.8369,33.1461,54.8369,32.8975L54.8369,27.2725C54.8369,27.0238,54.7382,26.7854,54.5623,26.6095C54.3865,26.4337,54.1481,26.335,53.8994,26.335ZM36.0869,13.21L43.5869,13.21L43.5869,18.835L36.0869,18.835L36.0869,13.21ZM18.5997,16.5792L14.3975,12.84L15.0207,12.1396C15.4963,11.605,16.1578,11.2718,16.8704,11.208C17.583,11.1441,18.2932,11.3544,18.8563,11.7959C18.8701,11.8076,18.8843,11.8186,18.8986,11.8295C18.93,11.855,18.961,11.8811,18.9915,11.9081C19.548,12.4045,19.8849,13.1013,19.9283,13.8457C19.9716,14.5901,19.718,15.3213,19.2229,15.8789L18.5997,16.5792ZM45.4619,50.71L45.4619,51.6475L11.7119,51.6475L11.7119,50.71C11.7122,50.4614,11.8111,50.2231,11.9868,50.0474C12.1626,49.8716,12.4009,49.7727,12.6494,49.7725L44.5244,49.7725C44.773,49.7727,45.0113,49.8716,45.187,50.0474C45.3628,50.2231,45.4616,50.4614,45.4619,50.71ZM33.2744,45.085C33.523,45.0852,33.7613,45.1841,33.937,45.3599C34.1128,45.5356,34.2116,45.7739,34.2119,46.0225L34.2119,47.8975L27.6494,47.8975L27.6494,45.085L33.2744,45.085ZM25.7744,45.3447L25.7744,47.8975L24.451,47.8975L20.8052,41.335L23.3681,41.335L25.7744,45.3447ZM19.2095,39.46C18.9609,39.4597,18.7226,39.3608,18.5469,39.1851C18.3711,39.0093,18.2722,38.771,18.272,38.5225L18.272,37.585L31.261,37.585L33.136,39.46L19.2095,39.46ZM41.1548,42.1755L41.1576,42.1782C41.3284,42.3551,41.4228,42.5919,41.4206,42.8377C41.4185,43.0835,41.3198,43.3187,41.146,43.4924C40.9721,43.6662,40.737,43.7648,40.4912,43.7669C40.2454,43.769,40.0086,43.6744,39.8318,43.5036L36.0712,39.7432L36.0547,39.7267L32.3126,35.9845C32.2255,35.8975,32.1221,35.8284,32.0084,35.7813C31.8947,35.7342,31.7727,35.71,31.6496,35.71L17.7183,35.71L8.71204,26.7038C8.62499,26.6167,8.55593,26.5133,8.50881,26.3996C8.4617,26.2858,8.43745,26.1639,8.43745,26.0408C8.43745,25.9177,8.4617,25.7958,8.50881,25.682C8.55593,25.5683,8.62499,25.4649,8.71204,25.3779C8.88786,25.2021,9.12633,25.1033,9.37497,25.1033C9.49809,25.1033,9.62,25.1275,9.73375,25.1747C9.84749,25.2218,9.95085,25.2908,10.0379,25.3779L18.2204,33.5604C18.3962,33.7362,18.6346,33.8349,18.8832,33.835L32.8837,33.835L41.1548,42.1755ZM30.4619,31.96L22.9619,31.96L22.9619,28.21L30.4619,28.21L30.4619,31.96ZM46.3994,28.21L52.9619,28.21L52.9619,31.96L50.1494,31.96L50.1494,30.085C50.1494,29.8363,50.0507,29.5979,49.8748,29.422C49.699,29.2462,49.4606,29.1475,49.2119,29.1475C48.9633,29.1475,48.7248,29.2462,48.549,29.422C48.3732,29.5979,48.2744,29.8363,48.2744,30.085L48.2744,31.96L46.3994,31.96L46.3994,28.21ZM47.3369,36.6475C47.0884,36.6472,46.8501,36.5483,46.6743,36.3726C46.4986,36.1968,46.3997,35.9585,46.3994,35.71L46.3994,33.835L48.2744,33.835L48.2744,35.71C48.2742,35.9585,48.1753,36.1968,47.9995,36.3726C47.8238,36.5483,47.5855,36.6472,47.3369,36.6475ZM52.0244,35.71C52.0244,35.9586,51.9257,36.1971,51.7498,36.3729C51.574,36.5487,51.3356,36.6475,51.0869,36.6475C50.8383,36.6475,50.5998,36.5487,50.424,36.3729C50.2482,36.1971,50.1494,35.9586,50.1494,35.71L50.1494,33.835L52.0244,33.835L52.0244,35.71ZM26.7119,13.21L24.8369,13.21L24.8369,11.335L26.7119,11.335L26.7119,13.21ZM24.8369,15.085L26.7119,15.085L26.7119,18.835L24.8369,18.835L24.8369,15.085Z" fill="url(#eHB0mcRu68T2-fill)" stroke="none" stroke-width="1"></path></svg>