<svg xmlns="http://www.w3.org/2000/svg" xmlns:xlink="http://www.w3.org/1999/xlink" id="Layer_1" x="0px" y="0px" viewBox="0 0 277.8 554.5" style="enable-background:new 0 0 277.8 554.5;" xml:space="preserve">
<style type="text/css">
	.st0{fill:url(#SVGID_1_);}
</style>
<linearGradient id="SVGID_1_" gradientUnits="userSpaceOnUse" x1="4.5554" y1="79.9153" x2="288.782" y2="527.8209" gradientTransform="matrix(1 0 0 -1 0 555.7814)">
	<stop offset="0" style="stop-color:#35E0D1"></stop>
	<stop offset="1" style="stop-color:#EE83EF"></stop>
</linearGradient>
<path class="st0" d="M70.4,520.3c-27.6-24.6-80.2-390-68.9-419.9c11.4-29.9,27.2-52.9,53-71.4C86,6.6,123.6-3.3,161.5,0.9  c30.5,3.5,61,16.7,83.6,40.9s36.1,59.9,31.9,93.8c-7.5,60-44.6,92.9-51,153.1c-6.6,61.8,23.1,126.7,14.3,188.1  c-5.7,39.7-37.3,70.1-72.6,76.3C133.8,559.1,98.1,544.9,70.4,520.3z"></path>
</svg>